<svg class="homeSVG2" width="150px" height="150px" viewBox="0 0 128 128" version="1.1" xmlns="http://www.w3.org/2000/svg" xmlns:xlink="http://www.w3.org/1999/xlink">
    <!-- Generator: Sketch 52.5 (67469) - http://www.bohemiancoding.com/sketch -->
    
    <desc>Created with Sketch.</desc>
    <g id="design-system" stroke="none" stroke-width="1" fill="none" fill-rule="evenodd">
        <g id="1.5.a-illustrations" transform="translate(-296.000000, -2528.000000)">
            <g id="illustrations" transform="translate(248.000000, 1324.000000)">
                <g id="illustration" transform="translate(0.000000, 1172.000000)">
                    <g id="atoms/illustrations/video-editing" transform="translate(48.000000, 32.000000)">
                        <g id="illustration">
                            <g id="atoms/illustrations/fifth-element/element4" fill="#E9E4E8" opacity="0.319999993">
                                <g id="bg-element">
                                    <path d="M82.7006509,102.864636 C85.1092709,81.6286243 104.252443,112.102303 112.440312,102.864636 C129.364234,83.7708343 136.57811,37.9864859 112.440312,17.2158682 C101.61113,7.89733738 90.5064898,2.65975696 75.7041752,2.65975696 C49.4708848,2.65975696 8.56904137,-14.5851996 4.18369943,38.7466553 C-0.201642507,92.0785101 75.3135322,167.994437 82.7006509,102.864636 Z" id="oval"></path>
                                    <path d="M101.335203,97.1490204 C138.611514,47.1385657 105.575175,9.12247384 56.9592019,9.12247384 C36.9613708,9.12247384 26.1566723,8.83223471 13.0091987,22.8553459 C-9.15309771,46.493678 11.9536737,46.7391384 11.9536737,77.1935292 C11.9536737,89.9642004 -0.494560334,122.642188 13.8723667,127.253972 C33.7664431,133.639971 79.6902501,126.188211 101.335203,97.1490204 Z" id="oval" transform="translate(60.127623, 69.249639) rotate(-90.000000) translate(-60.127623, -69.249639) "></path>
                                </g>
                            </g>
                            <g id="scissors" transform="translate(4.000000, 16.000000)">
                                <path d="M85.2035369,12.51544 L117.790167,31.60514 C118.148412,31.815005 118.271156,32.2798066 118.064323,32.6433034 L104.874759,55.8231914 C104.667926,56.1866882 104.20984,56.3112314 103.851595,56.1013664 L71.2649652,37.0116664 C70.90672,36.8018015 70.7839762,36.3369999 70.9908091,35.9735031 L84.1803726,12.7936151 C84.3872055,12.4301183 84.8452918,12.3055751 85.2035369,12.51544 Z" id="rectangle-22-copy-21" fill="#D58EC1"></path>
                                <path d="M82.5090984,40.5305614 L78.7255295,38.3077368 C78.579648,38.2220323 78.3931101,38.2728932 78.3088854,38.4213377 L77.6181104,39.6388166 C77.5338857,39.7872612 77.5838684,39.9770765 77.7297498,40.062781 L81.5133187,42.2856057 C81.6592002,42.3713102 81.8457381,42.3204493 81.9299628,42.1720048 L82.6207379,40.9545259 C82.7049626,40.8060813 82.6549799,40.616266 82.5090984,40.5305614 Z M94.9563443,18.5925086 L91.1727754,16.3696839 C91.0268939,16.2839794 90.840356,16.3348403 90.7561313,16.4832849 L90.0653563,17.7007637 C89.9811316,17.8492083 90.0311143,18.0390237 90.1769957,18.1247282 L93.9605646,20.3475528 C94.1064461,20.4332573 94.292984,20.3823965 94.3772087,20.2339519 L95.0679838,19.016473 C95.1522085,18.8680284 95.1022258,18.6782131 94.9563443,18.5925086 Z M119.097155,30.9759876 C119.461858,31.1902489 119.586815,31.6647872 119.376253,32.0358987 L105.20207,57.0176487 C104.991508,57.3887601 104.525163,57.5159123 104.16046,57.301651 L70.1239783,37.305417 C69.7592746,37.0911557 69.6343179,36.6166173 69.8448796,36.2455059 L84.0190631,11.2637559 C84.2296248,10.8926444 84.6959696,10.7654923 85.0606733,10.9797536 L119.097155,30.9759876 Z M115.037134,34.4849585 L82.6982405,15.4860474 L72.7404438,33.0364897 L105.079337,52.0354008 L115.037134,34.4849585 Z M114.35968,29.9918552 L110.576111,27.7690306 C110.43023,27.6833261 110.243692,27.734187 110.159467,27.8826315 L109.468692,29.1001104 C109.384468,29.248555 109.43445,29.4383703 109.580332,29.5240748 L113.363901,31.7468995 C113.509782,31.832604 113.69632,31.7817431 113.780545,31.6332985 L114.47132,30.4158197 C114.555545,30.2673751 114.505562,30.0775598 114.35968,29.9918552 Z M107.891902,26.192073 L104.108333,23.9692484 C103.962451,23.8835439 103.775913,23.9344047 103.691689,24.0828493 L103.000914,25.3003282 C102.916689,25.4487728 102.966672,25.6385881 103.112553,25.7242926 L106.896122,27.9471172 C107.042003,28.0328218 107.228541,27.9819609 107.312766,27.8335163 L108.003541,26.6160375 C108.087766,26.4675929 108.037783,26.2777775 107.891902,26.192073 Z M101.424123,22.3922908 L97.6405541,20.1694662 C97.4946726,20.0837616 97.3081347,20.1346225 97.22391,20.2830671 L96.533135,21.500546 C96.4489103,21.6489905 96.4988929,21.8388059 96.6447744,21.9245104 L100.428343,24.147335 C100.574225,24.2330395 100.760763,24.1821787 100.844987,24.0337341 L101.535762,22.8162552 C101.619987,22.6678107 101.570004,22.4779953 101.424123,22.3922908 Z M88.4885656,14.7927264 L84.7049967,12.5699017 C84.5591152,12.4841972 84.3725773,12.5350581 84.2883526,12.6835027 L83.5975776,13.9009815 C83.5133529,14.0494261 83.5633356,14.2392414 83.709217,14.324946 L87.4927859,16.5477706 C87.6386674,16.6334751 87.8252053,16.5826142 87.9094301,16.4341697 L88.6002051,15.2166908 C88.6844298,15.0682462 88.6344471,14.8784309 88.4885656,14.7927264 Z M101.912434,51.9299081 L98.1288656,49.7070835 C97.9829841,49.621379 97.7964462,49.6722398 97.7122215,49.8206844 L97.0214465,51.0381633 C96.9372218,51.1866078 96.9872044,51.3764232 97.1330859,51.4621277 L100.916655,53.6849523 C101.062536,53.7706569 101.249074,53.719796 101.333299,53.5713514 L102.024074,52.3538725 C102.108299,52.205428 102.058316,52.0156126 101.912434,51.9299081 Z M95.4446558,48.1301259 L91.6610869,45.9073012 C91.5152054,45.8215967 91.3286675,45.8724576 91.2444428,46.0209022 L90.5536678,47.238381 C90.4694431,47.3868256 90.5194257,47.576641 90.6653072,47.6623455 L94.4488761,49.8851701 C94.5947576,49.9708746 94.7812955,49.9200138 94.8655202,49.7715692 L95.5562952,48.5540903 C95.64052,48.4056457 95.5905373,48.2158304 95.4446558,48.1301259 Z M88.9768771,44.3303437 L85.1933082,42.107519 C85.0474267,42.0218145 84.8608888,42.0726754 84.7766641,42.22112 L84.0858891,43.4385988 C84.0016644,43.5870434 84.0516471,43.7768587 84.1975285,43.8625633 L87.9810974,46.0853879 C88.1269789,46.1710924 88.3135168,46.1202315 88.3977415,45.971787 L89.0885166,44.7543081 C89.1727413,44.6058635 89.1227586,44.4160482 88.9768771,44.3303437 Z M76.0413197,36.7307792 L72.2577508,34.5079546 C72.1118693,34.4222501 71.9253314,34.4731109 71.8411067,34.6215555 L71.1503317,35.8390344 C71.066107,35.987479 71.1160897,36.1772943 71.2619711,36.2629988 L75.04554,38.4858235 C75.1914215,38.571528 75.3779594,38.5206671 75.4621842,38.3722225 L76.1529592,37.1547437 C76.2371839,37.0062991 76.1872012,36.8164837 76.0413197,36.7307792 Z" id="combined-shape-copy-2" fill="#772460"></path>
                                <path d="M73.9726643,76.5959024 C74.7103799,72.9979494 76.9254386,69.7201953 80.3561543,67.7394707 C86.7212332,64.0645907 94.86054,66.2459683 98.535805,72.611714 C102.21107,78.9774597 100.030545,87.1169951 93.6654662,90.7918751 C88.8827623,93.5531705 83.0983326,93.0080339 78.9586856,89.8657437 L72.7469608,86.8015179 C69.6901579,85.2936059 67.0131035,83.140362 64.8925645,80.5049738 C63.5516485,83.1613996 61.7084423,85.5493383 59.4508378,87.5296916 L54.4837078,91.8868198 C51.3005806,96.0068698 45.8453381,98.039433 40.5022835,96.6077659 C33.4029605,94.705508 29.1900683,87.407682 31.0925255,80.3076152 C32.9949827,73.2075485 40.2923673,68.9938918 47.3916903,70.8961497 C51.1314397,71.8982125 54.0702264,74.3975047 55.7360593,77.5764147 L57.9516472,69.3077281 C51.9255928,59.1854702 47.7900129,52.1800231 45.5449077,48.2913867 C35.2567683,30.4718066 31.4073931,16.8265588 33.9967821,7.35564345 L61.6962777,55.3325771 L76.3185308,0.761585389 C81.2709418,9.23960394 81.0843809,23.4161928 75.7588481,43.2913518 C74.5614271,47.7601879 72.2818274,55.944576 68.9200491,67.8445162 L73.9726643,76.5959024 Z M42.0504648,90.8298746 C45.9590808,91.8771851 49.976742,89.5573067 51.0241622,85.6482812 C52.0715824,81.7392557 49.752125,77.7213515 45.8435089,76.674041 C41.9348929,75.6267305 37.9172317,77.9466088 36.8698115,81.8556344 C35.8223913,85.7646599 38.1418487,89.7825641 42.0504648,90.8298746 Z M90.6746096,85.6115595 C94.1789789,83.5883109 95.3794926,79.1069937 93.3560321,75.6022573 C91.3325716,72.0975209 86.8513802,70.8965377 83.3470109,72.9197863 C79.8426417,74.9430348 78.6421279,79.424352 80.6655884,82.9290884 C82.6890489,86.4338248 87.1702404,87.634808 90.6746096,85.6115595 Z M63.5317188,71.0465737 C64.853037,71.0465737 65.9241771,69.9753354 65.9241771,68.653896 C65.9241771,67.3324566 64.853037,66.2612184 63.5317188,66.2612184 C62.2104005,66.2612184 61.1392604,67.3324566 61.1392604,68.653896 C61.1392604,69.9753354 62.2104005,71.0465737 63.5317188,71.0465737 Z" id="combined-shape" fill="#271524"></path>
                                <path d="M1.45968176,38.0430458 L47.6413058,10.5483911 C48.0207727,10.322472 48.5059951,10.4565424 48.7250804,10.8478458 L63.214011,36.7262002 C63.4330963,37.1175035 63.3030814,37.6178611 62.9236145,37.8437802 L16.7419904,65.3384349 C16.3625235,65.564354 15.8773012,65.4302836 15.6582159,65.0389803 L1.16928524,39.1606259 C0.950199949,38.7693225 1.0802149,38.2689649 1.45968176,38.0430458 Z" id="rectangle-22-copy-20" fill="#D58EC1"></path>
                                <path d="M50.4203939,41.2954402 C50.2678052,41.3863114 50.2155244,41.5875698 50.3036216,41.7449633 L51.0261566,43.0358379 C51.1142537,43.1932314 51.3093682,43.2471585 51.4619569,43.1562872 L55.4194844,40.7994597 C55.5720731,40.7085884 55.6243538,40.5073301 55.5362567,40.3499365 L54.8137217,39.059062 C54.7256245,38.9016684 54.5305101,38.8477414 54.3779214,38.9386126 L50.4203939,41.2954402 Z M37.4008564,18.0348522 C37.2482677,18.1257234 37.1959869,18.3269817 37.284084,18.4843753 L38.0066191,19.7752498 C38.0947162,19.9326434 38.2898307,19.9865704 38.4424194,19.8956992 L42.3999468,17.5388716 C42.5525356,17.4480004 42.6048163,17.246742 42.5167192,17.0893485 L41.7941841,15.7984739 C41.706087,15.6410804 41.5109726,15.5871534 41.3583838,15.6780246 L37.4008564,18.0348522 Z M0.95331285,37.8796224 L47.8299523,9.96316232 C48.2114241,9.73598429 48.6992102,9.87080183 48.919453,10.2642857 L63.7453281,36.7520601 C63.965571,37.145544 63.8348691,37.6486899 63.4533973,37.875868 L16.5767579,65.792328 C16.1952861,66.0195061 15.7075,65.8846885 15.4872571,65.4912046 L0.661381997,39.0034302 C0.441139144,38.6099463 0.571841039,38.1068004 0.95331285,37.8796224 Z M5.12155459,41.6001315 L15.5371846,60.208602 L24.5573848,54.8367992 L14.1417548,36.2283288 L5.12155459,41.6001315 Z M16.3968048,34.8853781 L26.8124348,53.4938486 L60.6381856,33.3495884 L50.2225556,14.741118 L16.3968048,34.8853781 Z M3.57510566,38.1791123 C3.42251694,38.2699835 3.37023618,38.4712419 3.45833332,38.6286354 L4.18086835,39.91951 C4.26896549,40.0769036 4.46407994,40.1308306 4.61666866,40.0399594 L8.57419611,37.6831318 C8.72678483,37.5922606 8.77906559,37.3910022 8.69096845,37.2336086 L7.96843342,35.9427341 C7.88033627,35.7853405 7.68522183,35.7314135 7.53263311,35.8222847 L3.57510566,38.1791123 Z M10.3402558,34.1502603 C10.1876671,34.2411315 10.1353863,34.4423899 10.2234835,34.5997834 L10.9460185,35.890658 C11.0341156,36.0480515 11.2292301,36.1019785 11.3818188,36.0111073 L15.3393463,33.6542797 C15.491935,33.5634085 15.5442157,33.3621502 15.4561186,33.2047566 L14.7335836,31.9138821 C14.6454864,31.7564885 14.450372,31.7025615 14.2977833,31.7934327 L10.3402558,34.1502603 Z M17.105406,30.1214083 C16.9528172,30.2122795 16.9005365,30.4135378 16.9886336,30.5709314 L17.7111686,31.8618059 C17.7992658,32.0191995 17.9943802,32.0731265 18.146969,31.9822553 L22.1044964,29.6254277 C22.2570851,29.5345565 22.3093659,29.3332981 22.2212687,29.1759046 L21.4987337,27.88503 C21.4106366,27.7276365 21.2155221,27.6737095 21.0629334,27.7645807 L17.105406,30.1214083 Z M23.8705561,26.0925562 C23.7179674,26.1834274 23.6656866,26.3846858 23.7537838,26.5420793 L24.4763188,27.8329539 C24.5644159,27.9903475 24.7595304,28.0442745 24.9121191,27.9534033 L28.8696465,25.5965757 C29.0222353,25.5057045 29.074516,25.3044461 28.9864189,25.1470526 L28.2638838,23.856178 C28.1757867,23.6987844 27.9806723,23.6448574 27.8280835,23.7357286 L23.8705561,26.0925562 Z M30.6357062,22.0637042 C30.4831175,22.1545754 30.4308368,22.3558338 30.5189339,22.5132273 L31.2414689,23.8041019 C31.3295661,23.9614954 31.5246805,24.0154224 31.6772692,23.9245512 L35.6347967,21.5677236 C35.7873854,21.4768524 35.8396662,21.2755941 35.751569,21.1182005 L35.029034,19.827326 C34.9409369,19.6699324 34.7458224,19.6160054 34.5932337,19.7068766 L30.6357062,22.0637042 Z M44.1660065,14.0060001 C44.0134178,14.0968713 43.961137,14.2981297 44.0492342,14.4555233 L44.7717692,15.7463978 C44.8598664,15.9037914 45.0549808,15.9577184 45.2075695,15.8668472 L49.165097,13.5100196 C49.3176857,13.4191484 49.3699665,13.21789 49.2818693,13.0604965 L48.5593343,11.7696219 C48.4712371,11.6122283 48.2761227,11.5583013 48.123534,11.6491725 L44.1660065,14.0060001 Z M16.5946432,61.4397003 C16.4420545,61.5305716 16.3897737,61.7318299 16.4778708,61.8892235 L17.2004059,63.180098 C17.288503,63.3374916 17.4836175,63.3914186 17.6362062,63.3005474 L21.5937336,60.9437198 C21.7463224,60.8528486 21.7986031,60.6515902 21.710506,60.4941967 L20.9879709,59.2033221 C20.8998738,59.0459286 20.7047594,58.9920016 20.5521706,59.0828728 L16.5946432,61.4397003 Z M23.3597933,57.4108483 C23.2072046,57.5017195 23.1549238,57.7029779 23.243021,57.8603714 L23.965556,59.151246 C24.0536532,59.3086396 24.2487676,59.3625666 24.4013563,59.2716954 L28.3588838,56.9148678 C28.5114725,56.8239966 28.5637533,56.6227382 28.4756561,56.4653447 L27.7531211,55.1744701 C27.6650239,55.0170765 27.4699095,54.9631495 27.3173208,55.0540207 L23.3597933,57.4108483 Z M30.1249435,53.3819963 C29.9723547,53.4728675 29.920074,53.6741259 30.0081711,53.8315194 L30.7307062,55.122394 C30.8188033,55.2797875 31.0139178,55.3337145 31.1665065,55.2428433 L35.1240339,52.8860157 C35.2766226,52.7951445 35.3289034,52.5938862 35.2408063,52.4364926 L34.5182712,51.1456181 C34.4301741,50.9882245 34.2350596,50.9342975 34.0824709,51.0251687 L30.1249435,53.3819963 Z M36.8900936,49.3531443 C36.7375049,49.4440155 36.6852241,49.6452738 36.7733213,49.8026674 L37.4958563,51.0935419 C37.5839535,51.2509355 37.7790679,51.3048625 37.9316566,51.2139913 L41.8891841,48.8571637 C42.0417728,48.7662925 42.0940535,48.5650341 42.0059564,48.4076406 L41.2834214,47.116766 C41.1953242,46.9593725 41.0002098,46.9054455 40.8476211,46.9963167 L36.8900936,49.3531443 Z M43.6552438,45.3242922 C43.502655,45.4151634 43.4503743,45.6164218 43.5384714,45.7738154 L44.2610065,47.0646899 C44.3491036,47.2220835 44.544218,47.2760105 44.6968068,47.1851393 L48.6543342,44.8283117 C48.8069229,44.7374405 48.8592037,44.5361821 48.7711066,44.3787886 L48.0485715,43.087914 C47.9604744,42.9305204 47.7653599,42.8765934 47.6127712,42.9674646 L43.6552438,45.3242922 Z M57.1855441,37.2665882 C57.0329553,37.3574594 56.9806746,37.5587177 57.0687717,37.7161113 L57.7913067,39.0069859 C57.8794039,39.1643794 58.0745183,39.2183064 58.2271071,39.1274352 L62.1846345,36.7706076 C62.3372232,36.6797364 62.389504,36.4784781 62.3014068,36.3210845 L61.5788718,35.0302099 C61.4907747,34.8728164 61.2956602,34.8188894 61.1430715,34.9097606 L57.1855441,37.2665882 Z" id="combined-shape" fill="#772460"></path>
                            </g>
                        </g>
                    </g>
                </g>
            </g>
        </g>
    </g>
</svg>