<svg class="homeSVG" width="127px" height="127px" viewBox="0 0 127 127" version="1.1" xmlns="http://www.w3.org/2000/svg"
          xmlns:xlink="http://www.w3.org/1999/xlink">
          <!-- Generator: Sketch 51 (57462) - http://www.bohemiancoding.com/sketch -->
          
          <desc>Created with Sketch.</desc>
          <defs></defs>
          <g id="Home" stroke="none" stroke-width="1" fill="none" fill-rule="evenodd">
            <g id="Home2" transform="translate(-336.000000, -299.000000)">
              <rect fill="transparent" x="0" y="0" width="1440" height="1072"></rect>
              <g id="Group" transform="translate(250.000000, 255.000000)">
                <g id="photographer" transform="translate(86.000000, 44.000000)">
                  <path d="M59.1685714,118 C91.7533717,118 118,91.5848002 118,59 C118,26.4151998 91.5848002,0 59,0 C26.4151998,0 0,26.4151998 0,59 C0,91.5848002 26.5837712,118 59.1685714,118 Z"
                    id="background-circle" fill="#F3F1F3"></path>
                  <g id="camera" transform="translate(14.000000, 47.000000)">
                    <g id="body" transform="translate(0.080000, 14.771429)">
                      <g id="third-segment" transform="translate(0.000000, 4.205714)">
                        <rect id="Rectangle-Copy-3" fill="#AA3F8C" x="0" y="0.0879451879" width="112.315758" height="10.9060229"></rect>
                        <rect id="Rectangle-Copy-10" fill="#772460" x="0" y="0.0879451879" width="4.88329385" height="10.9060229"></rect>
                        <rect id="Rectangle-Copy-11" fill="#772460" x="107.432465" y="0.0879451879" width="4.88329385" height="10.9060229"></rect>
                      </g>
                      <g id="second-segment" transform="translate(0.000000, 3.474286)">
                        <rect id="Rectangle-Copy-2" fill="#372535" x="0" y="0.00549145162" width="112.315758" height="1"></rect>
                        <rect id="Rectangle-Copy-8" fill="#271524" x="0" y="0.00549145162" width="4.06941154" height="1"></rect>
                        <rect id="Rectangle-Copy-9" fill="#271524" x="108.246347" y="0.00549145162" width="4.06941154" height="1"></rect>
                      </g>
                      <g id="top-segment">
                        <path d="M3.41830569,0.0614714734 L108.897453,0.0614714734 C110.785331,0.0614714734 112.315758,1.59189906 112.315758,3.47977717 L0,3.47977717 C-2.31198388e-16,1.59189906 1.53042759,0.0614714734 3.41830569,0.0614714734 Z"
                          id="Rectangle-Copy" fill="#AA3F8C"></path>
                        <path d="M3.41830569,0.0614714734 L4.88329385,0.0614714734 L4.88329385,3.47977717 L0,3.47977717 L0,3.47977717 C-2.31198388e-16,1.59189906 1.53042759,0.0614714734 3.41830569,0.0614714734 Z"
                          id="Rectangle-Copy-6" fill="#772460"></path>
                        <path d="M107.432465,0.0614714734 L108.897453,0.0614714734 C110.785331,0.0614714734 112.315758,1.59189906 112.315758,3.47977717 L107.432465,3.47977717 L107.432465,0.0614714734 Z"
                          id="Rectangle-Copy-7" fill="#772460"></path>
                      </g>
                      <g id="fourth-segment" transform="translate(0.000000, 15.177143)">
                        <rect id="Rectangle-Copy-4" fill="#372535" x="0" y="0.0225395402" width="112.315758" height="40.5313389"></rect>
                        <rect id="Rectangle-Copy-13" fill="#271524" x="0" y="0.0225395402" width="4.06941154" height="40.5313389"></rect>
                        <rect id="Rectangle-Copy-14" fill="#271524" x="108.246347" y="0.0225395402" width="4.06941154" height="40.5313389"></rect>
                      </g>
                      <g id="fifth" transform="translate(0.000000, 55.588571)">
                        <rect id="Rectangle-Copy-5" fill="#AA3F8C" x="0" y="0.142449894" width="112.315758" height="5.04607031"></rect>
                        <rect id="Rectangle-Copy-15" fill="#772460" x="0" y="0.142449894" width="4.88329385" height="5.04607031"></rect>
                        <rect id="Rectangle-Copy-16" fill="#772460" x="107.432465" y="0.142449894" width="4.88329385" height="5.04607031"></rect>
                      </g>
                      <g id="sixth-segment" transform="translate(0.000000, 60.708571)">
                        <path d="M0,0.0685202023 L112.315758,0.0685202023 C112.315758,0.967509776 111.586983,1.69628482 110.687994,1.69628482 L1.62776462,1.69628482 C0.728775042,1.69628482 1.1009447e-16,0.967509776 0,0.0685202023 Z"
                          id="Rectangle-Copy-5" fill="#772460"></path>
                        <path d="M0,0.0685202023 L4.88329385,0.0685202023 L4.88329385,1.69628482 L1.62776462,1.69628482 C0.728775042,1.69628482 1.1009447e-16,0.967509776 0,0.0685202023 Z"
                          id="Rectangle-Copy-15" fill="#4E1D3F"></path>
                        <path d="M107.432465,0.0685202023 L112.315758,0.0685202023 L112.315758,0.0685202023 C112.315758,0.967509776 111.586983,1.69628482 110.687994,1.69628482 L107.432465,1.69628482 L107.432465,0.0685202023 Z"
                          id="Rectangle-Copy-16" fill="#4E1D3F"></path>
                      </g>
                    </g>
                    <g id="small-handle" transform="translate(18.731429, 41.834286)">
                      <path d="M3.95696636,17.898759 C3.4520203,17.898759 3.04268064,17.4894194 3.04268064,16.9844733 L3.04268064,13.9233955 C3.04268064,12.3906923 2.84997753,10.86407 2.46910483,9.37944373 L0.419274026,1.38928691 C0.396421664,1.30020934 0.384859477,1.208612 0.384859477,1.1166498 C0.384859477,0.510714536 0.876067066,0.0195069476 1.48200233,0.0195069476 L4.0723754,0.0195069476 C4.48382868,0.0195069476 4.86069503,0.249719349 5.04852583,0.61579775 L9.25797164,8.81992173 C10.2005721,10.6570308 10.6922079,12.6921728 10.6922079,14.7569889 L10.6922079,16.9844733 C10.6922079,17.4894194 10.2828682,17.898759 9.77792214,17.898759 L3.95696636,17.898759 Z"
                        id="‘" fill="#FFFFFF"></path>
                      <path d="M5.53989114,12.390518 L8.10628418,12.390518 C8.61123023,12.390518 9.02056989,12.7998577 9.02056989,13.3048037 L9.02056989,15.8711968 C9.02056989,16.3761428 8.61123023,16.7854825 8.10628418,16.7854825 L5.53989114,16.7854825 C5.03494509,16.7854825 4.62560543,16.3761428 4.62560543,15.8711968 L4.62560543,13.3048037 C4.62560543,12.7998577 5.03494509,12.390518 5.53989114,12.390518 Z"
                        id="Rectangle" fill="#661E5A"></path>
                      <path d="M6.43622719,13.2868541 L7.37485561,13.2868541 C7.87980166,13.2868541 8.28914132,13.6961937 8.28914132,14.2011398 L8.28914132,15.1397682 C8.28914132,15.6447143 7.87980166,16.0540539 7.37485561,16.0540539 L6.43622719,16.0540539 C5.93128113,16.0540539 5.52194147,15.6447143 5.52194147,15.1397682 L5.52194147,14.2011398 C5.52194147,13.6961937 5.93128113,13.2868541 6.43622719,13.2868541 Z"
                        id="Rectangle-Copy-17" fill="#9D6E96"></path>
                    </g>
                    <g id="top-buttons" transform="translate(5.565714, 5.628571)">
                      <path d="M3.79254402,5.46047 L7.53640264,5.46047 C9.60407866,5.46047 11.2802613,7.1366526 11.2802613,9.20432862 L0.0486854069,9.20432862 C0.0486854069,7.1366526 1.724868,5.46047 3.79254402,5.46047 Z"
                        id="button1" fill="#9D6E96"></path>
                      <g id="button2" transform="translate(21.394286, 3.657143)">
                        <rect id="Rectangle-3-Copy-3" fill="#271524" x="0.629222002" y="1.80332714" width="14.6498815" height="3.74385862"></rect>
                        <path d="M0.954774925,0.175562528 L15.1163271,0.175562528 C15.5658219,0.175562528 15.9302094,0.539950049 15.9302094,0.989444836 C15.9302094,1.43893962 15.5658219,1.80332714 15.1163271,1.80332714 L0.954774925,1.80332714 C0.505280138,1.80332714 0.140892617,1.43893962 0.140892617,0.989444836 C0.140892617,0.539950049 0.505280138,0.175562528 0.954774925,0.175562528 Z"
                          id="Rectangle-3-Copy-4" fill="#4E3C4B"></path>
                      </g>
                      <g id="buttons3+4" transform="translate(83.382857, 2.194286)">
                        <path d="M1.73180142,4.8939489 L16.5139154,4.8939489 C16.8705334,4.8939489 17.194606,5.10130104 17.3440497,5.42509571 L18.0755638,7.0100429 L0.170153038,7.0100429 L0.901667126,5.42509571 C1.05111082,5.10130104 1.37518341,4.8939489 1.73180142,4.8939489 Z"
                          id="Rectangle-3-Copy-5" fill="#271524"></path>
                        <path d="M3.68886214,1.63841967 L14.5568547,1.63841967 C15.0618008,1.63841967 15.4711404,2.04775933 15.4711404,2.55270539 L15.4711404,4.8939489 L2.77457642,4.8939489 L2.77457642,2.55270539 C2.77457642,2.04775933 3.18391608,1.63841967 3.68886214,1.63841967 Z"
                          id="Rectangle-3-Copy-6" fill="#4E3C4B"></path>
                        <path d="M5.21622335,0.0106550554 L6.84398796,0.0106550554 C7.74297754,0.0106550554 8.47175258,0.739430097 8.47175258,1.63841967 L3.58845873,1.63841967 C3.58845873,0.739430097 4.31723377,0.0106550554 5.21622335,0.0106550554 Z"
                          id="Rectangle-3-Copy-7" fill="#814678"></path>
                        <path d="M11.4017289,0.0106550554 L13.0294935,0.0106550554 C13.9284831,0.0106550554 14.6572581,0.739430097 14.6572581,1.63841967 L9.77396427,1.63841967 C9.77396427,0.739430097 10.5027393,0.0106550554 11.4017289,0.0106550554 Z"
                          id="Rectangle-3-Copy-8" fill="#814678"></path>
                      </g>
                      <g id="button2" transform="translate(12.068571, 0.000000)">
                        <path d="M0.939857847,2.20494077 L8.38954473,2.20494077 C8.89449078,2.20494077 9.30383044,2.61428043 9.30383044,3.11922648 L9.30383044,9.20432862 L0.0255721329,9.20432862 L0.0255721329,3.11922648 C0.0255721329,2.61428043 0.43491179,2.20494077 0.939857847,2.20494077 Z"
                          id="Rectangle-3-Copy" fill="#9D6E96"></path>
                        <path d="M3.76943075,0.0888467695 L5.55997183,0.0888467695 C6.72865827,0.0888467695 7.67606583,1.03625432 7.67606583,2.20494077 L1.65333675,2.20494077 C1.65333675,1.03625432 2.6007443,0.0888467695 3.76943075,0.0888467695 Z"
                          id="Rectangle-3-Copy-2" fill="#814678"></path>
                      </g>
                    </g>
                    <g id="top-middle-part" transform="translate(38.297143, 0.508571)">
                      <path d="M13.5497502,2.92997631 L30.4705456,2.92997631 C30.7778889,2.92997631 31.0646685,3.08439609 31.2338484,3.34098548 L38.6647017,14.611113 C40.0270113,16.6772826 40.9557217,18.998492 41.3945761,21.434134 L43.9849702,35.8108215 L0.0353256067,35.8108215 L2.62571976,21.434134 C3.06457416,18.998492 3.9932845,16.6772826 5.35559418,14.611113 L12.7864475,3.34098548 C12.9556273,3.08439609 13.2424069,2.92997631 13.5497502,2.92997631 Z"
                        id="Mask" fill="#FFFFFF"></path>
                      <path d="M15.3783493,4.75854774 L28.6419895,4.75854774 C28.9493244,4.75854774 29.2360973,4.9129591 29.4052792,5.16953704 L35.3683163,14.2129643 C35.7018718,14.7188282 35.5621883,15.3993121 35.0563244,15.7328676 C34.8770729,15.8510621 34.6670803,15.9140629 34.4523687,15.9140629 L9.56891552,15.9140629 C8.96298025,15.9140629 8.47177266,15.4228553 8.47177266,14.81692 C8.47177266,14.6022357 8.53475746,14.3922685 8.65292393,14.2130311 L14.6150229,5.16959266 C14.7841991,4.91298267 15.0709908,4.75854774 15.3783493,4.75854774 Z"
                        id="Mask-Copy" fill="#F3F1F3"></path>
                      <circle id="Oval-2" fill="#AA3F8C" cx="22.0101479" cy="21.3237165" r="1.13943523"></circle>
                      <path d="M15.5994929,0 L17.840333,0 C18.345279,-9.27570859e-17 18.7546187,0.409339657 18.7546187,0.914285714 L18.7546187,2.27887046 L25.2656771,2.27887046 L25.2656771,0.914285714 C25.2656771,0.409339657 25.6750168,9.27570859e-17 26.1799629,0 L28.420803,0 C28.925749,-1.43820366e-15 29.3350887,0.409339657 29.3350887,0.914285714 L29.3350887,2.92997631 L14.6852071,2.92997631 L14.6852071,0.914285714 C14.6852071,0.409339657 15.0945468,4.17576622e-16 15.5994929,0 Z"
                        id="Rectangle-3-Copy-10" fill="#4E3C4B"></path>
                    </g>
                    <g id="objective" transform="translate(32.445714, 23.731429)">
                      <circle id="Oval-3" fill="#271524" cx="27.8615765" cy="27.8889518" r="27.8347749"></circle>
                      <circle id="Oval-3-Copy" fill="#FFFFFF" cx="27.8615765" cy="27.8889518" r="22.9514811"></circle>
                      <circle id="Oval-3-Copy-2" fill="#372535" cx="27.8615765" cy="27.8889518" r="21.3237165"></circle>
                      <circle id="Oval-3-Copy-4" fill="#655563" cx="27.8615765" cy="27.8889518" r="11.5571288"></circle>
                      <circle id="Oval-3-Copy-5" fill="#4E3C4B" cx="27.8615765" cy="29.5167164" r="9.92936415"></circle>
                    </g>
                  </g>
                </g>
              </g>
            </g>
          </g>
        </svg>