<svg class="homeSVG" width="126px" height="127px" viewBox="0 0 126 127" version="1.1" xmlns="http://www.w3.org/2000/svg"
          xmlns:xlink="http://www.w3.org/1999/xlink">
          <!-- Generator: Sketch 51 (57462) - http://www.bohemiancoding.com/sketch -->
          
          <desc>Created with Sketch.</desc>
          <defs>
            <circle id="path-1" cx="59" cy="59" r="59"></circle>
            <path d="M9.92593367,0.929678059 L82.1723516,21.8789922 C85.547326,22.8576345 88.3275878,25.2596536 89.7859111,28.4567595 C91.2500644,31.6666465 91.3038841,35.3428358 89.9343244,38.5942087 L89.7815377,38.9569285 C88.3255488,42.4134866 85.3883319,45.0290637 81.7867817,46.0762191 L9.77524896,67.013665 C8.18427799,67.4762419 6.51954854,66.5614977 6.05697168,64.9705268 C6.0465813,64.9347904 6.0368568,64.8988639 6.02780324,64.8627657 L3.04886849,52.9852227 C0.588216738,43.1741663 0.321518361,32.9411767 2.26777328,23.0152648 L6.14649793,3.23374566 C6.46530028,1.60785173 8.0417881,0.548244648 9.66768203,0.867047001 C9.75464874,0.884099278 9.84081714,0.904996793 9.92593367,0.929678059 Z"
              id="path-3"></path>
            <path d="M0.777296921,0.0166669723 L76.1723516,21.8789922 C79.547326,22.8576345 82.3275878,25.2596536 83.7859111,28.4567595 C85.250522,31.6676498 85.3093728,35.3439432 83.9482873,38.6000677 L83.7859111,38.9885202 C82.3333189,42.4635562 79.3853901,45.0940029 75.7679845,46.1429431 L0.777296921,67.8880138 L1.56105764,65.5919559 C8.83209819,44.2911561 8.55536515,21.1375987 0.777296921,0.0166669723 Z"
              id="path-5"></path>
          </defs>
          <g id="Home" stroke="none" stroke-width="1" fill="none" fill-rule="evenodd">
            <g id="Home2" transform="translate(-656.000000, -299.000000)">
              <rect fill="transparent" x="0" y="0" width="1440" height="1072"></rect>
              <g id="Group-Copy" transform="translate(570.000000, 255.000000)">
                <g id="campaign" transform="translate(86.000000, 44.000000)">
                  <g id="background">
                    <mask id="mask-2" fill="white">
                      <use xlink:href="#path-1"></use>
                    </mask>
                    <use id="Mask" fill="#F3F1F3" xlink:href="#path-1"></use>
                    <path d="M109.135315,53.421509 C108.824154,53.6068149 108.717542,54.0172239 108.897191,54.3381832 L110.370595,56.9705538 C110.550244,57.291513 110.948125,57.4014818 111.259286,57.2161759 L119.329535,52.4100981 C119.640696,52.2247922 119.747307,51.8143831 119.567658,51.4934239 L118.094254,48.8610533 C117.914605,48.540094 117.516725,48.4301253 117.205564,48.6154312 L109.135315,53.421509 Z M82.585681,5.98817262 C82.2745198,6.17347854 82.1679081,6.58388758 82.3475571,6.90484685 L83.8209613,9.53721741 C84.0006103,9.85817668 84.3984905,9.96814545 84.7096517,9.78283953 L92.7799004,4.97676174 C93.0910616,4.79145581 93.1976733,4.38104678 93.0180243,4.06008751 L91.5446201,1.42771695 C91.3649712,1.10675768 90.9670909,0.996788906 90.6559297,1.18209483 L82.585681,5.98817262 Z M8.26130928,46.4559226 L103.852848,-10.4717371 C104.630751,-10.9350019 105.625452,-10.66008 106.074574,-9.8576818 L136.307719,44.1565809 C136.756841,44.9589791 136.490312,45.9850017 135.712409,46.4482665 L40.1208703,103.375926 C39.3429673,103.839191 38.3482666,103.564269 37.8991441,102.761871 L7.66599956,48.7476081 C7.21687706,47.94521 7.48340631,46.9191874 8.26130928,46.4559226 Z M16.7612497,54.04284 L38.000957,91.9895091 L56.3950831,81.0352493 L35.1553758,43.0885802 L16.7612497,54.04284 Z M39.7539073,40.3500153 L60.9936146,78.2966843 L129.971588,37.2182101 L108.73188,-0.72845899 L39.7539073,40.3500153 Z M13.6077081,47.0666469 C13.2965469,47.2519528 13.1899352,47.6623618 13.3695842,47.9833211 L14.8429884,50.6156917 C15.0226374,50.9366509 15.4205176,51.0466197 15.7316788,50.8613138 L23.8019275,46.055236 C24.1130887,45.8699301 24.2197004,45.459521 24.0400514,45.1385618 L22.5666473,42.5061912 C22.3869983,42.1852319 21.989118,42.0752632 21.6779568,42.2605691 L13.6077081,47.0666469 Z M27.4033027,38.850952 C27.0921415,39.036258 26.9855298,39.446667 27.1651788,39.7676263 L28.6385829,42.3999968 C28.8182319,42.7209561 29.2161122,42.8309249 29.5272734,42.6456189 L37.5975221,37.8395411 C37.9086833,37.6542352 38.015295,37.2438262 37.835646,36.9228669 L36.3622418,34.2904964 C36.1825928,33.9695371 35.7847126,33.8595683 35.4735514,34.0448742 L27.4033027,38.850952 Z M41.1988973,30.6352572 C40.8877361,30.8205631 40.7811244,31.2309721 40.9607734,31.5519314 L42.4341775,34.184302 C42.6138265,34.5052612 43.0117068,34.61523 43.322868,34.4299241 L51.3931167,29.6238463 C51.7042779,29.4385404 51.8108896,29.0281313 51.6312406,28.7071721 L50.1578364,26.0748015 C49.9781874,25.7538422 49.5803071,25.6438735 49.269146,25.8291794 L41.1988973,30.6352572 Z M54.9944918,22.4195623 C54.6833306,22.6048682 54.5767189,23.0152773 54.7563679,23.3362366 L56.2297721,25.9686071 C56.4094211,26.2895664 56.8073014,26.3995352 57.1184626,26.2142292 L65.1887113,21.4081514 C65.4998725,21.2228455 65.6064842,20.8124365 65.4268352,20.4914772 L63.953431,17.8591067 C63.773782,17.5381474 63.3759017,17.4281786 63.0647405,17.6134845 L54.9944918,22.4195623 Z M68.7900864,14.2038675 C68.4789252,14.3891734 68.3723135,14.7995824 68.5519625,15.1205417 L70.0253667,17.7529123 C70.2050157,18.0738715 70.6028959,18.1838403 70.9140571,17.9985344 L78.9843058,13.1924566 C79.295467,13.0071507 79.4020787,12.5967416 79.2224297,12.2757824 L77.7490256,9.6434118 C77.5693766,9.32245253 77.1714963,9.21248376 76.8603351,9.39778968 L68.7900864,14.2038675 Z M96.3812756,-2.22752223 C96.0701144,-2.04221631 95.9635027,-1.63180728 96.1431517,-1.310848 L97.6165558,1.32152256 C97.7962048,1.64248183 98.1940851,1.7524506 98.5052463,1.56714468 L106.575495,-3.23893311 C106.886656,-3.42423904 106.993268,-3.83464807 106.813619,-4.15560735 L105.340215,-6.7879779 C105.160566,-7.10893718 104.762685,-7.21890595 104.451524,-7.03360002 L96.3812756,-2.22752223 Z M40.1573422,94.4999832 C39.846181,94.6852892 39.7395694,95.0956982 39.9192183,95.4166575 L41.3926225,98.049028 C41.5722715,98.3699873 41.9701518,98.4799561 42.281313,98.2946501 L50.3515617,93.4885723 C50.6627229,93.3032664 50.7693346,92.8928574 50.5896856,92.5718981 L49.1162814,89.9395276 C48.9366324,89.6185683 48.5387521,89.5085995 48.2275909,89.6939054 L40.1573422,94.4999832 Z M53.9529368,86.2842884 C53.6417756,86.4695943 53.5351639,86.8800033 53.7148129,87.2009626 L55.1882171,89.8333332 C55.3678661,90.1542924 55.7657464,90.2642612 56.0769076,90.0789553 L64.1471563,85.2728775 C64.4583174,85.0875716 64.5649291,84.6771625 64.3852801,84.3562033 L62.911876,81.7238327 C62.732227,81.4028734 62.3343467,81.2929047 62.0231855,81.4782106 L53.9529368,86.2842884 Z M67.7485314,78.0685935 C67.4373702,78.2538994 67.3307585,78.6643085 67.5104075,78.9852678 L68.9838117,81.6176383 C69.1634607,81.9385976 69.5613409,82.0485664 69.8725021,81.8632604 L77.9427508,77.0571826 C78.253912,76.8718767 78.3605237,76.4614677 78.1808747,76.1405084 L76.7074706,73.5081379 C76.5278216,73.1871786 76.1299413,73.0772098 75.8187801,73.2625157 L67.7485314,78.0685935 Z M81.544126,69.8528987 C81.2329648,70.0382046 81.1263531,70.4486136 81.3060021,70.7695729 L82.7794062,73.4019435 C82.9590552,73.7229027 83.3569355,73.8328715 83.6680967,73.6475656 L91.7383454,68.8414878 C92.0495066,68.6561819 92.1561183,68.2457728 91.9764693,67.9248136 L90.5030651,65.292443 C90.3234161,64.9714837 89.9255359,64.861515 89.6143747,65.0468209 L81.544126,69.8528987 Z M95.3397206,61.6372038 C95.0285594,61.8225097 94.9219477,62.2329188 95.1015967,62.5538781 L96.5750008,65.1862486 C96.7546498,65.5072079 97.1525301,65.6171767 97.4636913,65.4318707 L105.53394,60.6257929 C105.845101,60.440487 105.951713,60.030078 105.772064,59.7091187 L104.29866,57.0767481 C104.119011,56.7557889 103.72113,56.6458201 103.409969,56.831126 L95.3397206,61.6372038 Z M122.93091,45.2058141 C122.619749,45.39112 122.513137,45.8015291 122.692786,46.1224883 L124.16619,48.7548589 C124.345839,49.0758182 124.743719,49.1857869 125.05488,49.000481 L133.125129,44.1944032 C133.43629,44.0090973 133.542902,43.5986883 133.363253,43.277729 L131.889849,40.6453584 C131.7102,40.3243992 131.31232,40.2144304 131.001158,40.3997363 L122.93091,45.2058141 Z"
                      id="Combined-Shape" fill="#FFFFFF" mask="url(#mask-2)" transform="translate(71.986859, 46.452095) rotate(-256.000000) translate(-71.986859, -46.452095) "></path>
                  </g>
                  <g id="icon" transform="translate(75.010408, 85.922096) scale(-1, 1) rotate(45.000000) translate(-75.010408, -85.922096) translate(29.510408, 51.922096)">
                    <g id="Group" transform="translate(73.027406, 43.771070) rotate(15.000000) translate(-73.027406, -43.771070) translate(58.527406, 28.771070)"
                      fill="#271524" fill-rule="nonzero">
                      <path d="M0.0875496704,15.0025574 L22.3583135,0.454500714 L27.0103851,8.63539307 C30.7052178,15.1329346 28.707539,23.3836585 22.449766,27.4714588 C16.6674732,31.2486585 8.91797338,29.6232095 5.14077367,23.8409167 C5.00033775,23.6259316 4.86655686,23.4066719 4.7396213,23.1834496 L0.0875496704,15.0025574 Z M9.98113429,16.7058536 L11.8030399,19.8455549 C13.2690454,22.3719314 16.5055105,23.2315319 19.031887,21.7655263 C19.0967949,21.7278616 19.1608938,21.6888196 19.2241401,21.6484269 C21.8243345,19.9877952 22.6539147,16.5730227 21.1054348,13.9045178 L19.2835292,10.7648165 L9.98113429,16.7058536 Z"
                        id="Combined-Shape"></path>
                    </g>
                    <g id="Rectangle-2">
                      <mask id="mask-4" fill="white">
                        <use xlink:href="#path-3"></use>
                      </mask>
                      <use id="Mask" fill="#772460" fill-rule="nonzero" xlink:href="#path-3"></use>
                      <g mask="url(#mask-4)">
                        <g transform="translate(6.000000, 0.000000)">
                          <mask id="mask-6" fill="white">
                            <use xlink:href="#path-5"></use>
                          </mask>
                          <use id="Mask" stroke="none" fill="#AA3F8C" fill-rule="nonzero" xlink:href="#path-5"></use>
                          <path d="M0.777296921,0.0166669723 L71.8385817,16.7745785 C79.7301104,18.6355854 85.4987259,25.4060319 86.0831069,33.4929393 C74.4643962,26.2343749 57.1373068,27.5608808 34.1018387,37.4724568 C11.0663707,47.3840328 0.577971697,39.0676921 2.63664182,12.5234346 L0.777296921,0.0166669723 Z"
                            id="Rectangle-2" stroke="none" fill="#BA61A0" fill-rule="nonzero" mask="url(#mask-6)"></path>
                        </g>
                      </g>
                    </g>
                  </g>
                </g>
              </g>
            </g>
          </g>
        </svg>